<svg width="110" height="32" viewBox="0 0 110 32" fill="none" xmlns="http://www.w3.org/2000/svg">
<path d="M19.3537 8.45348V17.8427C19.3537 19.8171 17.9901 21.2376 15.7741 21.2376C13.5653 21.2376 12.1946 19.8171 12.1946 17.8427V8.45348H10V18.0202C10 21.0742 12.2869 23.2404 15.7741 23.2404C19.2614 23.2404 21.5554 21.0742 21.5554 18.0202V8.45348H19.3537Z" fill="#101828"/>
<path d="M26.6992 16.5217C26.6992 14.7816 27.7646 13.7873 29.2418 13.7873C30.6836 13.7873 31.5572 14.7319 31.5572 16.3157V22.9989H33.6808V16.06C33.6808 13.3612 32.1964 11.9478 29.9663 11.9478C28.3256 11.9478 27.2532 12.7077 26.7489 13.8654H26.614V12.0898H24.5756V22.9989H26.6992V16.5217Z" fill="#101828"/>
<path d="M41.6211 12.0898H39.3839V9.47621H37.2603V12.0898H35.6623V13.7944H37.2603V20.2362C37.2532 22.2177 38.766 23.1765 40.4421 23.141C41.1168 23.1339 41.5714 23.006 41.82 22.9137L41.4364 21.1594C41.2944 21.1879 41.0316 21.2518 40.6907 21.2518C40.0018 21.2518 39.3839 21.0245 39.3839 19.7958V13.7944H41.6211V12.0898Z" fill="#101828"/>
<path d="M43.9702 22.9989H46.0938V12.0898H43.9702V22.9989ZM45.0426 10.4066C45.7741 10.4066 46.3849 9.83842 46.3849 9.1424C46.3849 8.44638 45.7741 7.87109 45.0426 7.87109C44.304 7.87109 43.7003 8.44638 43.7003 9.1424C43.7003 9.83842 44.304 10.4066 45.0426 10.4066Z" fill="#101828"/>
<path d="M54.043 12.0898H51.8058V9.47621H49.6822V12.0898H48.0842V13.7944H49.6822V20.2362C49.6751 22.2177 51.1879 23.1765 52.864 23.141C53.5387 23.1339 53.9933 23.006 54.2418 22.9137L53.8583 21.1594C53.7163 21.1879 53.4535 21.2518 53.1126 21.2518C52.4237 21.2518 51.8058 21.0245 51.8058 19.7958V13.7944H54.043V12.0898Z" fill="#101828"/>
<path d="M58.75 8.45348H56.6264V22.9989H58.75V8.45348Z" fill="#101828"/>
<path d="M66.3086 23.2191C68.6879 23.2191 70.3711 22.0472 70.854 20.2717L68.8441 19.9094C68.4606 20.9393 67.5373 21.4648 66.3299 21.4648C64.5117 21.4648 63.2901 20.2859 63.2333 18.1836H70.989V17.4308C70.989 13.489 68.631 11.9478 66.1594 11.9478C63.1197 11.9478 61.1168 14.2631 61.1168 17.6154C61.1168 21.0032 63.0913 23.2191 66.3086 23.2191ZM63.2404 16.5927C63.3256 15.0444 64.4478 13.7021 66.1737 13.7021C67.8214 13.7021 68.9009 14.9237 68.908 16.5927H63.2404Z" fill="#101828"/>
<path d="M77.429 23.212C79.4176 23.212 80.1989 21.9975 80.5824 21.3015H80.7599V22.9989H82.8338V8.45348H80.7102V13.8583H80.5824C80.1989 13.1836 79.4744 11.9478 77.4432 11.9478C74.8082 11.9478 72.8693 14.0288 72.8693 17.5657C72.8693 21.0955 74.7798 23.212 77.429 23.212ZM77.8977 21.4009C76.0014 21.4009 75.0142 19.7319 75.0142 17.5444C75.0142 15.3782 75.9801 13.7518 77.8977 13.7518C79.7514 13.7518 80.7457 15.2646 80.7457 17.5444C80.7457 19.8384 79.7301 21.4009 77.8977 21.4009Z" fill="#101828"/>
<path d="M100.682 8.45348V17.8427C100.682 19.8171 99.3182 21.2376 97.1023 21.2376C94.8935 21.2376 93.5227 19.8171 93.5227 17.8427V8.45348H91.3281V18.0202C91.3281 21.0742 93.6151 23.2404 97.1023 23.2404C100.589 23.2404 102.884 21.0742 102.884 18.0202V8.45348H100.682Z" fill="#101828"/>
<path d="M108.269 8.45348H106.074V22.9989H108.269V8.45348Z" fill="#101828"/>
</svg>
