<?xml version="1.0" standalone="no"?>
<!DOCTYPE svg PUBLIC "-//W3C//DTD SVG 20010904//EN"
 "http://www.w3.org/TR/2001/REC-SVG-20010904/DTD/svg10.dtd">
<svg version="1.0" xmlns="http://www.w3.org/2000/svg"
 width="512.000000pt" height="512.000000pt" viewBox="0 0 512.000000 512.000000"
 preserveAspectRatio="xMidYMid meet">

<g transform="translate(0.000000,512.000000) scale(0.100000,-0.100000)"
fill="#000000" stroke="none">
<path d="M2492 4983 c-18 -9 -41 -28 -51 -42 -10 -14 -177 -348 -370 -741
-194 -393 -354 -716 -355 -717 -1 -2 -362 -55 -802 -119 -534 -77 -811 -121
-834 -133 -40 -20 -80 -88 -80 -136 0 -16 10 -46 23 -66 12 -19 280 -287 594
-594 315 -306 573 -563 573 -569 0 -6 -61 -370 -136 -809 l-137 -798 19 -47
c14 -34 31 -53 59 -70 77 -44 63 -51 848 362 l717 378 718 -379 c690 -363 719
-378 772 -378 70 0 112 27 136 90 l17 45 -137 798 c-75 438 -136 802 -136 808
0 6 258 263 573 569 314 307 582 575 594 594 13 20 23 50 23 66 0 48 -40 116
-80 136 -23 12 -300 56 -834 133 -440 64 -801 117 -802 119 -1 1 -161 324
-355 717 -193 393 -360 727 -370 741 -38 55 -123 74 -187 42z"/>
</g>
</svg>
